<?xml version="1.0" encoding="UTF-8"?>
<svg id="Layer_2" xmlns="http://www.w3.org/2000/svg" viewBox="0 0 361 181">
  <defs>
    <style>
      .cls-1 {
        stroke-width: 1.4px;
      }

      .cls-1, .cls-2 {
        stroke-linejoin: round;
      }

      .cls-1, .cls-2, .cls-3 {
        fill: none;
        stroke: rgba(1, 1, 1, .3);
      }

      .cls-2 {
        stroke-linecap: round;
      }

      .cls-2, .cls-3 {
        stroke-width: 2px;
      }

      .cls-4 {
        fill: #9b212b;
      }

      .cls-5 {
        fill: rgba(1, 1, 1, .2);
        fill-rule: evenodd;
      }
    </style>
  </defs>
  <g id="Layer_1-2" data-name="Layer_1">
    <g>
      <rect class="cls-4" y="1" width="360" height="180"/>
      <path class="cls-2" d="M182.71,1l-17.14,27.26"/>
      <path class="cls-2" d="M180.88,18.33l-13.48,19.86"/>
      <ellipse class="cls-3" cx="243.84" cy="42.33" rx="20" ry="5"/>
      <path class="cls-5" d="M180,181s53-12.5,62-16.5,4-24.5,14-24.5,35.5,20.5,51,20.5,23-46.5,29.5-46.5,10.5,26,16.5,26,8-35.5,8-35.5v56.5c0,11.05-8.95,20-20,20h-161Z"/>
      <path class="cls-5" d="M1.24,65.5V21C1.24,9.95,10.19,1,21.24,1h136s-25.5,39-38.5,32.5-16.59-19.45-34.5-14c-17.91,5.45-11.97,28.11-23,31.5s-25-18.5-32-14-8.65,32.59-12,36-16-7.5-16-7.5Z"/>
      <path class="cls-1" d="M195.13,69.35c-.12-.24-.36-.39-.63-.39s-.51.15-.63.39l-4,8c-.11.22-.1.47.03.68.13.21.35.33.6.33h8c.24,0,.47-.13.6-.33.13-.21.14-.46.03-.68l-4-8Z"/>
    </g>
  </g>
</svg>